<svg xmlns="http://www.w3.org/2000/svg" viewBox="0 0 100 100" width="100" height="100">
  <defs>
    <linearGradient id="grad1" x1="0%" y1="0%" x2="100%" y2="100%">
      <stop offset="0%" style="stop-color:#f97316;stop-opacity:1" />
      <stop offset="100%" style="stop-color:#d97706;stop-opacity:1" />
    </linearGradient>
  </defs>
  <!-- Modern clean industrial hexagonal badge -->
  <polygon points="50,15 80,32 80,68 50,85 20,68 20,32" fill="url(#grad1)" />
  <!-- Inner cog/gear shape representing automated operations -->
  <path d="M50 30 C39 30 30 39 30 50 C30 61 39 70 50 70 C61 70 70 61 70 50 C70 39 61 30 50 30 Z M50 40 C55.5 40 60 44.5 60 50 C60 55.5 65 60 50 60 C34.5 60 40 55.5 40 50 C40 44.5 44.5 40 50 40 Z" fill="#ffffff" opacity="0.9" />
  <circle cx="50" cy="50" r="10" fill="url(#grad1)" />
  <circle cx="50" cy="50" r="4" fill="#ffffff" />
</svg>
